<?xml version="1.0" encoding="UTF-8"?>
<!DOCTYPE svg PUBLIC "-//W3C//DTD SVG 1.1//EN" "http://www.w3.org/Graphics/SVG/1.1/DTD/svg11.dtd">
<!-- Creator: CorelDRAW X7 -->
<svg xmlns="http://www.w3.org/2000/svg" xml:space="preserve" width="400px" height="322px" version="1.1" style="shape-rendering:geometricPrecision; text-rendering:geometricPrecision; image-rendering:optimizeQuality; fill-rule:evenodd; clip-rule:evenodd"
viewBox="0 0 861 694"
 xmlns:xlink="http://www.w3.org/1999/xlink">
 <defs>
  <style type="text/css">
   <![CDATA[
    .fil4 {fill:#0067B8;fill-rule:nonzero}
    .fil5 {fill:#083D67;fill-rule:nonzero}
    .fil1 {fill:#1C1C1A;fill-rule:nonzero}
    .fil22 {fill:#212121;fill-rule:nonzero}
    .fil23 {fill:#5DA3D8;fill-rule:nonzero}
    .fil14 {fill:#C1C1C1;fill-rule:nonzero}
    .fil0 {fill:#E8E8E8;fill-rule:nonzero}
    .fil8 {fill:white;fill-rule:nonzero}
    .fil7 {fill:url(#id0);fill-rule:nonzero}
    .fil17 {fill:url(#id1);fill-rule:nonzero}
    .fil16 {fill:url(#id2);fill-rule:nonzero}
    .fil15 {fill:url(#id3);fill-rule:nonzero}
    .fil12 {fill:url(#id4);fill-rule:nonzero}
    .fil13 {fill:url(#id5);fill-rule:nonzero}
    .fil2 {fill:url(#id6);fill-rule:nonzero}
    .fil18 {fill:url(#id7);fill-rule:nonzero}
    .fil3 {fill:url(#id8);fill-rule:nonzero}
    .fil21 {fill:url(#id9);fill-rule:nonzero}
    .fil6 {fill:url(#id10);fill-rule:nonzero}
    .fil10 {fill:url(#id11);fill-rule:nonzero}
    .fil9 {fill:url(#id12);fill-rule:nonzero}
    .fil11 {fill:url(#id13);fill-rule:nonzero}
    .fil19 {fill:url(#id14);fill-rule:nonzero}
    .fil20 {fill:url(#id15);fill-rule:nonzero}
   ]]>
  </style>
  <linearGradient id="id0" gradientUnits="userSpaceOnUse" x1="424.005" y1="210.137" x2="541.585" y2="210.137">
   <stop offset="0" style="stop-opacity:1; stop-color:#073B62"/>
   <stop offset="1" style="stop-opacity:1; stop-color:#1C6EAC"/>
  </linearGradient>
  <linearGradient id="id1" gradientUnits="userSpaceOnUse" x1="510.376" y1="439.263" x2="516.204" y2="544.171">
   <stop offset="0" style="stop-opacity:1; stop-color:#1C6EAC"/>
   <stop offset="1" style="stop-opacity:1; stop-color:#1193F6"/>
  </linearGradient>
  <linearGradient id="id2" gradientUnits="userSpaceOnUse" x1="475.12" y1="258.273" x2="482.943" y2="307.821">
   <stop offset="0" style="stop-opacity:1; stop-color:#1C6EAC"/>
   <stop offset="0" style="stop-opacity:1; stop-color:#1C6EAC"/>
   <stop offset="1" style="stop-opacity:1; stop-color:#0F7CD1"/>
  </linearGradient>
  <linearGradient id="id3" gradientUnits="userSpaceOnUse" x1="275.647" y1="397.993" x2="734.781" y2="337.634">
   <stop offset="0" style="stop-opacity:1; stop-color:#1F74B8"/>
   <stop offset="0" style="stop-opacity:1; stop-color:#1F74B8"/>
   <stop offset="0.529412" style="stop-opacity:1; stop-color:#073B62"/>
   <stop offset="1" style="stop-opacity:1; stop-color:#1C6EAC"/>
  </linearGradient>
  <linearGradient id="id4" gradientUnits="userSpaceOnUse" x1="655.513" y1="374.561" x2="165.517" y2="592.61">
   <stop offset="0" style="stop-opacity:1; stop-color:#E0E0E0"/>
   <stop offset="0" style="stop-opacity:1; stop-color:#E0E0E0"/>
   <stop offset="1" style="stop-opacity:1; stop-color:white"/>
  </linearGradient>
  <linearGradient id="id5" gradientUnits="userSpaceOnUse" x1="393.262" y1="470.768" x2="128.139" y2="802.171">
   <stop offset="0" style="stop-opacity:1; stop-color:#CFCFCF"/>
   <stop offset="1" style="stop-opacity:1; stop-color:#777777"/>
  </linearGradient>
  <linearGradient id="id6" gradientUnits="userSpaceOnUse" xlink:href="#id4" x1="569.688" y1="113.614" x2="354.497" y2="192.416">
  </linearGradient>
  <linearGradient id="id7" gradientUnits="userSpaceOnUse" x1="166.251" y1="315.067" x2="264.195" y2="448.844">
   <stop offset="0" style="stop-opacity:1; stop-color:#A8A8A8"/>
   <stop offset="1" style="stop-opacity:1; stop-color:#1C1C1A"/>
  </linearGradient>
  <linearGradient id="id8" gradientUnits="userSpaceOnUse" x1="278.413" y1="234.809" x2="418.511" y2="166.511">
   <stop offset="0" style="stop-opacity:1; stop-color:#777777"/>
   <stop offset="1" style="stop-opacity:1; stop-color:#CFCFCF"/>
  </linearGradient>
  <linearGradient id="id9" gradientUnits="userSpaceOnUse" x1="152.204" y1="542.738" x2="322.166" y2="575.214">
   <stop offset="0" style="stop-opacity:1; stop-color:#084979"/>
   <stop offset="0.988235" style="stop-opacity:1; stop-color:#081F33"/>
   <stop offset="1" style="stop-opacity:1; stop-color:#081F33"/>
  </linearGradient>
  <linearGradient id="id10" gradientUnits="userSpaceOnUse" x1="409.168" y1="93.7853" x2="564.112" y2="32.371">
   <stop offset="0" style="stop-opacity:1; stop-color:#1C6EAC"/>
   <stop offset="1" style="stop-opacity:1; stop-color:#073B62"/>
  </linearGradient>
  <linearGradient id="id11" gradientUnits="userSpaceOnUse" x1="691.737" y1="465.392" x2="749.746" y2="543.109">
   <stop offset="0" style="stop-opacity:1; stop-color:gainsboro"/>
   <stop offset="0.988235" style="stop-opacity:1; stop-color:#A8A8A8"/>
   <stop offset="1" style="stop-opacity:1; stop-color:#A8A8A8"/>
  </linearGradient>
  <linearGradient id="id12" gradientUnits="userSpaceOnUse" x1="710.922" y1="428.373" x2="787.192" y2="359.207">
   <stop offset="0" style="stop-opacity:1; stop-color:#A8A8A8"/>
   <stop offset="0" style="stop-opacity:1; stop-color:#A8A8A8"/>
   <stop offset="1" style="stop-opacity:1; stop-color:gainsboro"/>
  </linearGradient>
  <linearGradient id="id13" gradientUnits="userSpaceOnUse" x1="550.155" y1="543.116" x2="671.314" y2="543.116">
   <stop offset="0" style="stop-opacity:1; stop-color:#081F33"/>
   <stop offset="0" style="stop-opacity:1; stop-color:#081F33"/>
   <stop offset="1" style="stop-opacity:1; stop-color:#084979"/>
  </linearGradient>
  <linearGradient id="id14" gradientUnits="userSpaceOnUse" xlink:href="#id12" x1="24.0641" y1="326.305" x2="175.064" y2="527.638">
  </linearGradient>
  <linearGradient id="id15" gradientUnits="userSpaceOnUse" xlink:href="#id12" x1="78.6119" y1="593.372" x2="103.306" y2="522.034">
  </linearGradient>
 </defs>
 <g id="Слой_x0020_1">
  <metadata id="CorelCorpID_0Corel-Layer"/>
  <g id="_2480313965360">
   <path class="fil0" d="M861 407c0,124 -116,230 -279,270 -1,0 -1,0 -1,0 -2,0 -5,1 -7,1 -5,2 -9,3 -14,3 0,0 0,0 0,0l0 0c0,1 -1,1 -1,1l0 0 0 0c0,0 -1,0 -1,0 0,0 0,0 0,0 -3,0 -7,1 -10,2 0,0 0,0 0,0 0,0 -1,0 -1,0 0,0 0,0 0,0 -32,6 -67,9 -102,10 0,0 -1,0 -1,0 0,0 0,0 -1,0 -2,0 -4,0 -6,0 -4,0 -8,0 -12,0 -4,0 -9,-1 -13,-1 -3,0 -5,0 -8,0 0,0 0,0 0,0 0,0 -1,0 -1,0l-4 0c-1,-1 -2,-1 -4,-1 0,0 0,0 0,0 0,0 0,0 0,0l0 0c-1,0 -2,0 -3,0 0,0 0,0 0,0 -7,0 -14,-1 -21,-2 -69,-7 -132,-26 -186,-53 -4,-1 -7,-3 -11,-5 0,0 0,0 0,-1 -98,-52 -161,-133 -161,-224 0,-152 174,-276 394,-287 0,0 1,0 1,0 0,0 1,0 1,0 2,0 4,0 5,0 8,0 15,0 23,0 9,0 17,0 26,0 0,0 0,0 0,0l0 0c3,0 7,0 10,1 0,0 0,0 1,0 0,0 0,0 0,0 2,0 4,0 6,0 1,0 1,0 1,0 1,0 1,0 1,0 3,0 6,1 9,1 1,0 2,0 3,0 0,0 0,0 0,0 1,0 2,0 3,0 1,1 2,1 3,1 0,0 0,0 0,0 3,0 5,0 8,1 1,0 2,0 2,0 1,0 1,0 1,0 4,0 8,1 13,2 1,0 3,0 4,0 1,0 2,0 2,1 8,1 15,2 23,3 1,1 3,1 4,1 1,0 1,0 2,1 175,35 302,145 302,275z"/>
   <path class="fil1" d="M467 79l-10 -76c0,-2 1,-3 3,-3 1,0 3,1 3,3l18 75c0,2 -1,4 -3,4l-8 0c-1,0 -3,-2 -3,-3z"/>
   <path class="fil1" d="M448 93l-10 -75c0,-2 1,-3 3,-3 2,0 3,1 3,2l18 76c0,2 -1,3 -3,3l-8 0c-1,0 -3,-1 -3,-3z"/>
   <path class="fil1" d="M490 100l-10 -76c0,-1 1,-3 3,-3 2,0 3,1 4,3l17 76c0,1 -1,3 -3,3l-7 0c-2,0 -3,-1 -4,-3z"/>
   <path class="fil2" d="M580 260c-1,0 -2,0 -3,0l0 0c-5,0 -10,0 -15,1 -41,1 -91,4 -142,9 -8,0 -16,1 -23,2l0 0c-17,1 -34,3 -50,5l-19 -154c0,0 10,-10 27,-24 8,-6 17,-13 27,-20 24,-17 52,-34 80,-40 21,-4 54,16 75,34 10,9 18,17 20,22 5,11 18,123 23,165z"/>
   <path class="fil3" d="M420 270c-8,0 -16,1 -23,2l0 0c-17,1 -34,3 -50,5l-19 -154c0,0 10,-10 27,-24l65 171z"/>
   <polygon class="fil4" points="400,165 388,110 440,127 457,132 472,137 479,174 419,175 402,176 "/>
   <path class="fil5" d="M392 114l21 7 16 5 11 3 16 6 13 4 6 32 -27 1 -18 0 -11 0 -14 1 -2 -9 -11 -50zm-8 -8l0 0 2 10 11 49 2 9 1 5 5 -1 14 0 11 0 18 -1 27 0 7 -1 -1 -6 -6 -32 -1 -4 -3 -1 -13 -4 -17 -5 -10 -3 -17 -6 -21 -6 -9 -3z"/>
   <polygon class="fil4" points="509,142 532,132 552,125 558,122 558,172 526,172 516,173 "/>
   <path class="fil5" d="M555 127l0 42 -12 0 -17 1 -7 0 -7 -27 21 -8 20 -7 2 -1zm6 -9l0 0 -8 3 -2 1 -20 8 -21 8 -5 2 2 5 6 26 1 5 5 0 7 -1 18 0 12 0 5 -1 0 -5 0 -42 0 -9z"/>
   <path class="fil6" d="M537 73c-29,17 -50,40 -51,40 -36,-26 -76,-33 -104,-34 24,-17 52,-34 80,-40 21,-4 54,16 75,34z"/>
   <polygon class="fil7" points="424,193 455,217 542,220 541,227 449,227 425,209 "/>
   <path class="fil8" d="M707 350c0,1 0,2 0,3 0,1 0,2 0,3 0,0 0,1 0,2 0,1 0,3 0,4 0,0 0,0 0,0 -1,2 -1,3 -1,5 0,0 0,0 0,0 0,1 0,2 0,3 -1,2 -1,4 -1,5 0,1 -1,2 -1,3 -1,4 -2,9 -3,14 -10,45 -34,98 -60,148 -3,5 -6,11 -9,16 -2,4 -4,9 -7,13 -1,1 -1,3 -2,4 -1,2 -2,3 -3,5 -5,8 -10,17 -15,25 0,0 0,1 -1,1 -1,2 -2,3 -3,5 -1,2 -2,3 -2,4 -1,2 -2,3 -3,4 0,0 0,0 0,0 -1,2 -2,3 -3,5 0,0 0,1 -1,1 0,1 -1,2 -2,4 -3,4 -5,8 -8,12 0,0 -1,1 -1,2 0,0 0,0 0,0 0,0 0,0 -1,0l0 0c-1,2 -2,4 -4,6 0,1 -1,2 -2,3 0,1 -1,2 -1,3 -2,1 -3,3 -4,5 -1,0 -1,1 -2,2 0,1 -1,2 -2,2 0,1 0,1 0,2 -1,0 -1,0 -1,1 -1,0 -1,0 -1,1 0,0 -1,0 -1,1 0,0 0,0 -1,1 0,0 0,0 0,1 -1,0 -1,1 -1,1 -1,1 -2,1 -2,2 0,1 -1,1 -1,1 0,1 -1,1 -1,2 -1,0 -1,1 -1,1 -2,2 -4,4 -5,6 -1,1 -2,1 -2,2 0,0 -1,0 -1,0 0,0 0,0 0,0 -32,6 -67,9 -102,10 0,0 -1,0 -1,0 0,0 0,0 -1,0 -2,0 -4,0 -6,0 -4,0 -8,0 -12,0 -4,0 -9,-1 -13,-1 -3,0 -5,0 -8,0 0,0 0,0 0,0 0,0 -1,0 -1,0l-4 0c-1,-1 -2,-1 -4,-1 0,0 0,0 0,0 0,0 0,0 0,0l0 0c-1,0 -2,0 -3,0 0,0 0,0 0,0 -7,0 -14,-1 -21,-2 -1,0 -2,-1 -3,-2 0,0 0,0 0,0 0,0 0,0 -1,0 -1,-1 -2,-2 -4,-3 0,0 0,0 0,0 0,-1 -1,-1 -1,-1 0,0 -1,-1 -1,-1 0,0 0,0 0,0 -1,0 -1,-1 -1,-1 -2,-1 -4,-3 -5,-4 -1,0 -2,-1 -2,-1 -4,-3 -8,-7 -12,-10 -1,-1 -1,-1 -1,-1 0,0 0,0 0,0 0,0 0,0 0,0 -3,-2 -5,-4 -7,-6 0,0 0,0 -1,-1 -4,-3 -8,-7 -12,-11 -1,-1 -2,-3 -4,-4 0,0 0,0 -1,-1 -1,-1 -2,-2 -4,-4 -10,-10 -20,-20 -30,-31 0,-1 -1,-2 -2,-3 -1,-1 -2,-2 -3,-3 -1,-1 -1,-2 -2,-2 -1,-2 -2,-3 -3,-4 0,0 0,-1 -1,-1 -1,-2 -2,-3 -3,-4l0 0c-4,-5 -7,-9 -11,-13 0,0 -1,-1 -1,-2 -1,-1 -2,-2 -3,-3l0 0c-1,-1 -1,-1 -2,-2 0,0 0,0 0,0 -1,-1 -1,-2 -2,-3 0,0 0,0 0,0 -1,-1 -1,-1 -2,-2 -3,-4 -6,-8 -9,-11l0 0c-11,-16 -23,-31 -33,-46 0,-1 0,-1 -1,-1 0,-1 -1,-2 -1,-2 0,-1 0,-1 0,-1 -1,0 -1,-1 -1,-1 -1,-1 -1,-1 -1,-2 -1,-1 -3,-3 -4,-5 0,-1 -1,-2 -1,-2 -1,-1 -1,-1 -1,-1 0,-1 -1,-1 -1,-2 0,0 0,0 0,0 0,0 0,0 0,0l0 0c-1,-1 -1,-1 -1,-2 0,0 -1,0 -1,-1 0,0 -1,-1 -1,-1 0,-1 0,-1 0,-1 -1,-1 -1,-2 -2,-3 -1,-1 -1,-1 -2,-2 0,-1 0,-2 -1,-2 0,0 0,-1 0,-1 -2,-3 -4,-6 -6,-9 0,-1 -1,-1 -1,-2 0,0 0,0 0,0 0,-1 0,-1 0,-1 0,0 0,0 0,0 -1,0 -1,-1 -1,-1 -1,-2 -2,-4 -3,-6 -1,-1 -1,-1 -2,-2 0,-1 -1,-2 -1,-2 0,0 0,-1 0,-1 -1,-2 -3,-4 -4,-6 0,0 0,0 0,0 0,0 0,-1 0,-1 -1,-2 -2,-4 -3,-6 -1,0 -1,-1 -1,-1 0,0 0,0 0,0 0,0 0,-1 0,-1 -1,0 -1,-1 -1,-1 0,0 0,-1 0,-1 0,0 -1,-1 -1,-1 0,0 0,-1 0,-1 0,0 0,0 0,0 0,0 -1,-1 -1,-1 0,-1 0,-1 -1,-2 0,0 0,0 0,-1 -1,-3 -2,-5 -3,-8 -1,-1 -2,-3 -2,-5 0,0 0,0 0,0 -1,0 -1,-1 -1,-1 0,-1 0,-1 0,-1 0,0 0,-1 0,-1 0,0 0,0 0,0 0,0 -1,-1 -1,-1 -1,-5 -3,-11 -5,-18 -1,-7 -3,-16 -2,-25 0,0 0,-1 0,-1 0,-1 0,-1 0,-2 0,-1 0,-2 0,-3 0,-1 0,-1 1,-2 0,0 0,-1 0,-1 0,-3 1,-7 2,-10 1,-1 1,-2 2,-4 0,0 0,0 0,-1 0,0 1,0 1,0 0,-1 0,-1 0,-1 0,0 0,0 0,0 0,-1 1,-1 1,-2 0,0 0,-1 1,-1 0,-1 0,-1 1,-2 0,-1 0,-1 1,-2 0,0 0,0 0,0 0,-1 1,-1 1,-2 0,0 1,-1 1,-1 0,0 0,0 0,-1 1,0 1,0 1,-1 0,0 1,-1 1,-1 1,-1 1,-1 1,-1 1,-1 1,-1 2,-2 0,0 0,0 0,0 0,0 0,-1 1,-1 0,0 1,-1 1,-1 0,-1 1,-1 1,-2 0,0 1,0 1,0 0,-1 1,-1 1,-1 0,0 0,0 0,-1 0,0 1,0 1,0 0,0 0,0 0,0 0,0 0,0 0,0 0,-1 0,-1 0,-1 1,0 1,0 1,0 1,-1 2,-2 3,-3 1,0 1,0 1,0 0,0 0,0 0,0 0,0 0,-1 0,-1 0,0 0,0 0,0 0,0 1,0 1,0 0,0 1,-1 1,-1 1,-1 2,-1 2,-2 2,-1 3,-2 5,-3 1,0 2,-1 3,-1 0,-1 0,-1 0,-1 1,0 2,-1 4,-2 0,0 1,0 1,-1 0,0 0,0 0,0 0,0 0,0 1,0 0,0 0,0 0,0 1,0 1,-1 2,-1 0,0 0,0 0,0 0,0 1,-1 1,-1 0,0 1,0 1,0 1,-1 3,-1 4,-2 0,0 1,0 1,0 1,0 1,-1 1,-1 1,0 1,0 2,0 1,-1 2,-1 4,-2 1,0 2,0 2,-1 1,0 1,0 2,0 0,0 1,0 1,0 0,0 1,-1 1,-1 0,0 0,0 0,0 0,0 0,0 1,0 0,0 1,0 2,-1 0,0 1,0 2,0 0,0 1,0 1,-1 1,0 2,0 2,0 1,0 1,0 2,-1 0,0 0,0 0,0 1,0 1,0 1,0 2,0 4,-1 6,-1 1,-1 1,-1 2,-1 1,0 2,0 4,-1 0,0 0,0 0,0 1,0 2,0 2,0 1,-1 2,-1 3,-1 6,-1 11,-2 17,-4 3,0 6,-1 9,-1 3,-1 6,-1 9,-2 1,0 3,0 4,0 1,-1 2,-1 3,-1 1,0 3,0 4,-1 19,-3 39,-5 60,-8 23,-3 48,-5 72,-7 61,-5 120,-8 161,-9 2,0 4,0 5,0 10,0 19,0 26,0 1,0 2,0 2,0 0,0 0,0 1,0 0,0 1,0 1,0 0,0 0,0 0,0 1,0 2,0 3,0 0,0 0,0 0,0 1,0 1,0 1,0 1,0 1,0 2,0 0,0 0,0 1,0 1,0 1,0 2,1 1,0 1,0 2,0 0,0 0,0 0,0 1,0 1,0 1,0 1,0 1,0 1,0 0,0 0,0 0,0 1,0 1,0 2,0 0,0 1,0 1,0 1,0 2,1 3,1 1,0 1,0 2,0 1,0 2,0 3,1 1,0 2,0 3,0 1,0 2,1 2,1 1,0 2,0 3,0 2,1 4,2 7,2 7,3 15,6 23,11 1,1 2,2 3,2 7,7 15,15 20,26l0 0c1,2 2,5 2,7 1,1 1,3 2,4 0,0 0,1 0,1 0,2 1,3 1,4 0,1 0,2 0,3 1,3 1,6 2,9 0,1 0,2 0,3 0,4 1,9 0,14z"/>
   <polygon class="fil9" points="691,375 782,475 802,466 689,320 "/>
   <polygon class="fil10" points="681,511 773,461 786,480 676,557 663,530 "/>
   <polygon class="fil11" points="708,475 700,560 589,612 620,549 "/>
   <path class="fil1" d="M806 462c0,12 -10,22 -22,22 -12,0 -21,-10 -21,-22 0,-11 9,-21 21,-21 12,0 22,10 22,21z"/>
   <path class="fil12" d="M707 350c0,1 0,2 0,3 0,1 0,2 0,3 0,0 0,1 0,2 0,1 0,3 0,4 0,0 0,0 0,0 -1,2 -1,3 -1,5 0,0 0,0 0,0 0,1 0,2 0,3 -1,2 -1,4 -1,5 0,1 -1,2 -1,3 -1,5 -2,9 -3,14 -10,45 -34,98 -60,148 -3,5 -6,11 -9,16 -2,4 -4,9 -7,13 -1,1 -1,3 -2,4 -1,2 -2,3 -3,5 -13,23 -27,45 -39,62 0,1 0,1 -1,2 -2,2 -4,5 -6,8 -3,5 -6,9 -9,14 -1,0 -1,0 -1,1 -1,0 -1,0 -1,1 -1,0 -1,1 -2,2 0,0 0,0 0,1 -1,0 -1,1 -1,1 -1,1 -2,1 -2,2 0,1 -1,1 -1,1 0,1 -1,1 -1,2 -2,3 -4,5 -6,7 -1,1 -1,1 -2,2 0,0 0,0 0,0 0,0 -1,0 -1,0 0,0 0,0 0,0 -32,6 -67,9 -102,10 0,0 -1,0 -1,0 0,0 0,0 -1,0 -2,0 -4,0 -6,0 -4,0 -8,0 -12,0 -4,0 -9,-1 -13,-1 -3,0 -5,0 -8,0 0,0 0,0 0,0 0,0 -1,0 -1,0l-4 0c-1,-1 -2,-1 -4,-1 0,0 0,0 0,0 0,0 0,0 0,0l0 0c-1,0 -2,0 -3,0 0,0 0,0 0,0 -7,0 -14,-1 -21,-2 -1,0 -2,-1 -3,-2 0,0 0,0 0,0 0,0 0,0 -1,0 -1,-1 -2,-2 -4,-3 0,0 0,0 0,0 0,-1 -1,-1 -1,-1 0,0 -1,-1 -1,-1 -1,0 -1,-1 -1,-1 -2,-1 -4,-3 -5,-4 -1,0 -2,-1 -2,-1 -4,-3 -8,-7 -12,-10 -1,-1 -1,-1 -1,-1 0,0 0,0 0,0 -3,-2 -5,-4 -7,-6 0,0 0,0 -1,-1 -4,-3 -8,-7 -12,-11 -1,-1 -2,-3 -4,-4 0,0 0,0 -1,-1 -1,-1 -2,-2 -4,-4 -10,-10 -20,-20 -30,-31 0,-1 -1,-2 -2,-3 -1,-1 -2,-2 -3,-3 -1,-1 -1,-2 -2,-2 -1,-2 -2,-3 -3,-4 0,0 0,-1 -1,-1 -1,-2 -2,-3 -3,-4l0 0c-4,-5 -7,-9 -11,-13 0,0 -1,-1 -1,-2 -1,-1 -2,-2 -3,-3l0 0c-1,-1 -1,-1 -2,-2 0,0 0,0 0,0 -1,-1 -1,-2 -2,-3 0,0 0,0 0,0 -1,-1 -1,-1 -2,-2 -3,-4 -6,-8 -9,-11l0 0c-11,-16 -23,-31 -33,-46 0,-1 0,-1 -1,-1 0,-1 -1,-2 -1,-2 0,-1 0,-1 0,-1 -1,0 -1,-1 -1,-1 -1,-1 -1,-1 -1,-2 -1,-1 -3,-3 -4,-5 0,-1 -1,-2 -1,-2 -1,-1 -1,-1 -1,-1 0,-1 -1,-1 -1,-2 0,0 0,0 0,0l0 0c-1,-1 -1,-1 -1,-2 0,0 -1,0 -1,-1 0,0 -1,-1 -1,-1 0,-1 0,-1 0,-1 -1,-1 -1,-2 -2,-3 -1,-1 -1,-1 -2,-2 0,-1 0,-2 -1,-2 0,0 0,-1 0,-1 -2,-3 -4,-6 -6,-9 0,-1 -1,-1 -1,-2 0,0 0,0 0,0 0,-1 0,-1 0,-1 0,0 0,0 -1,0 0,0 0,-1 0,-1 -1,-2 -2,-4 -3,-6 -1,-1 -1,-1 -2,-2 0,-1 -1,-2 -1,-2 0,0 0,-1 0,-1 -1,-2 -3,-4 -4,-6 0,0 0,0 0,0l0 0c0,0 0,-1 0,-1 -1,-2 -2,-4 -3,-6 -1,0 -1,-1 -1,-1 0,0 0,0 0,0 0,0 0,-1 0,-1 -1,0 -1,-1 -1,-1 0,0 0,-1 0,-1 0,0 -1,-1 -1,-1 0,0 0,-1 0,-1 0,0 0,0 0,0 0,0 -1,-1 -1,-1 0,-1 0,-1 -1,-2 0,0 0,0 0,-1 -1,-3 -2,-5 -3,-8 -1,-1 -2,-3 -2,-5 0,0 0,0 0,0 -1,0 -1,-1 -1,-1 0,-1 0,-1 0,-1 0,0 0,-1 0,-1l0 0c0,0 0,0 0,0 0,0 -1,-1 -1,-1 -1,-5 -3,-11 -5,-18 -1,-7 -3,-16 -2,-25 0,0 0,-1 0,-1 0,-1 0,-1 0,-2 0,-1 0,-2 0,-3 0,-1 0,-1 1,-2 0,0 0,-1 0,-1 0,-3 1,-7 2,-10 1,-1 2,-3 2,-5 0,0 1,0 1,0 0,-1 0,-1 0,-1 0,-1 1,-1 1,-2 0,0 0,-1 1,-1 0,-1 0,-1 1,-2 0,-1 0,-1 1,-2 0,-1 1,-2 2,-3 0,0 1,-1 1,-2 0,0 1,-1 1,-1 1,-1 2,-2 3,-3 0,0 0,-1 1,-1 0,0 1,-1 1,-1 0,-1 1,-1 1,-2 0,0 1,0 1,0 0,-1 1,-1 1,-1 0,0 0,0 0,-1 0,0 1,0 1,0 0,0 0,0 0,0 0,0 0,0 0,0 0,-1 0,-1 0,-1 1,0 1,0 1,0 1,-1 2,-2 3,-3 1,0 1,0 1,0 0,0 0,0 0,0 0,-1 0,-1 0,-1 1,0 2,-1 2,-1 1,-1 2,-1 2,-2 2,-1 3,-2 5,-3 1,0 2,-1 3,-1 0,-1 0,-1 0,-1 1,0 2,-1 4,-2 0,0 1,0 1,-1 0,0 0,0 0,0 0,0 0,0 1,0 0,0 0,0 1,0 0,-1 0,-1 1,-1 0,0 0,0 0,0 0,0 1,0 1,-1 0,0 1,0 1,0 1,-1 3,-1 4,-2 0,0 1,0 1,0 1,0 1,-1 1,-1 1,0 1,0 1,0 0,0 0,0 1,0 1,-1 2,-1 4,-2 1,0 2,0 2,-1 1,0 1,0 2,0 0,0 1,0 1,0 0,0 1,-1 1,-1 0,0 0,0 0,0 0,0 0,0 1,0 0,0 0,0 0,0 1,0 1,0 2,-1 0,0 1,0 2,0 0,0 1,0 1,-1 1,0 2,0 2,0 1,0 1,0 2,-1 0,0 0,0 0,0 1,0 1,0 1,0 2,0 4,-1 6,-1 1,-1 1,-1 2,-1 1,0 2,0 4,-1 0,0 0,0 0,0 1,0 2,0 2,0 1,-1 2,-1 3,-1 6,-1 11,-2 17,-4 3,0 6,-1 9,-1 3,-1 6,-1 9,-2 1,0 3,0 4,0 1,-1 2,-1 3,-1 1,0 3,0 4,-1 19,-3 39,-5 60,-8 6,-1 13,-1 20,-2 4,0 7,-1 11,-1 4,-1 7,-1 11,-1 10,-1 20,-2 30,-3 2,0 4,-1 7,-1 0,0 1,0 2,0 5,0 10,-1 15,-1 1,0 1,0 1,0 6,-1 12,-1 18,-2 0,0 0,0 1,0 3,0 7,0 10,0 2,0 3,0 5,-1 2,0 4,0 7,0 4,0 8,-1 12,-1 2,0 4,0 6,0 3,0 7,-1 11,-1 2,0 4,0 7,0 4,0 9,0 13,-1 0,0 1,0 1,0 2,0 4,0 5,0 2,0 4,0 5,0 5,0 10,0 14,-1 2,0 4,0 5,0 2,0 4,0 5,0l0 0c3,0 5,0 7,0 2,0 3,0 4,0 2,0 4,0 5,0 10,0 19,0 26,0 1,0 2,0 2,0 1,0 1,0 2,0 0,0 0,0 0,0 1,0 2,0 3,0 0,0 0,0 0,0 1,0 2,0 3,0 0,0 0,0 1,0 1,0 3,1 4,1 0,0 0,0 0,0 1,0 1,0 1,0 1,0 1,0 1,0 0,0 0,0 0,0 1,0 1,0 2,0 0,0 1,0 1,0 1,0 2,1 3,1 1,0 1,0 2,0 1,0 2,0 3,1 1,0 2,0 3,0 1,0 2,1 2,1 1,0 2,0 3,0 2,1 4,2 7,2 7,3 15,6 23,11 1,1 2,2 3,2 7,7 15,15 20,26l0 0c1,2 2,5 2,7 1,1 1,3 2,4 0,0 0,1 0,1 0,2 1,3 1,4 0,1 0,2 0,3 1,3 1,6 2,9 0,1 0,2 0,3 0,4 1,9 0,14z"/>
   <path class="fil13" d="M605 603c0,0 0,1 -1,1 -1,2 -2,3 -3,5 -1,2 -2,3 -2,4 -1,2 -2,3 -3,4 0,0 0,0 0,0 -1,2 -2,3 -3,5 0,0 0,1 -1,1 0,1 -1,2 -2,4 -3,4 -5,8 -8,12 0,0 -1,1 -1,2 0,0 0,0 0,0 0,0 0,0 -1,0l0 0c-1,2 -2,4 -4,6 -1,2 -2,4 -3,6 -2,1 -3,3 -4,5 -1,0 -1,1 -2,2 0,1 -1,2 -2,2 0,1 0,1 0,2 -1,0 -1,0 -1,1 -1,0 -1,0 -1,1 0,0 -1,0 -1,1 0,0 0,0 -1,1 0,0 0,0 0,1 -1,0 -1,1 -1,1 -1,1 -2,1 -2,2 0,1 -1,1 -1,1 -1,1 -2,2 -2,3 -2,2 -4,4 -5,6 -1,1 -2,1 -2,2 0,0 -1,0 -1,0 0,0 0,0 0,0 -32,6 -67,9 -102,10 0,0 -1,0 -1,0 0,0 0,0 -1,0 -2,0 -4,0 -6,0 -4,0 -8,0 -12,0 -4,0 -9,-1 -13,-1 -3,0 -5,0 -8,0 0,0 0,0 0,0 0,0 -1,0 -1,0l-4 0c-1,-1 -2,-1 -4,-1 0,0 0,0 0,0 0,0 0,0 0,0l0 0c-1,0 -2,0 -3,0 0,0 0,0 0,0 -7,0 -14,-1 -21,-2 -1,0 -2,-1 -3,-2 0,0 0,0 0,0 0,0 0,0 -1,0 -1,-1 -2,-2 -4,-3 0,0 0,0 0,0 0,-1 -1,-1 -1,-1 0,0 -1,-1 -1,-1 0,0 -1,-1 -1,-1 -2,-1 -4,-3 -5,-4 -1,0 -2,-1 -2,-1 -4,-3 -8,-7 -12,-10 -1,-1 -1,-1 -1,-1 0,0 0,0 0,0 0,0 0,0 0,0 -3,-2 -5,-4 -7,-6 0,0 0,0 -1,-1 -4,-3 -8,-7 -12,-11 -1,-1 -2,-3 -4,-4 0,0 0,0 -1,-1 -1,-1 -2,-2 -4,-4 -10,-10 -20,-20 -30,-31 0,-1 -1,-2 -2,-3 -1,-1 -2,-2 -3,-3 -1,-1 -1,-2 -2,-2 -1,-2 -2,-3 -3,-4 0,0 0,-1 -1,-1 -1,-2 -2,-3 -3,-4l0 0c-4,-5 -7,-9 -11,-13 0,0 -1,-1 -1,-2 -1,-1 -2,-2 -3,-3l0 0c-1,-1 -1,-1 -2,-2 0,0 0,0 0,0 -1,-1 -1,-2 -2,-3 0,-1 -1,-1 -2,-2 -3,-4 -6,-8 -9,-11l0 0c-11,-16 -23,-31 -33,-46 0,-1 0,-1 -1,-1 0,-1 -1,-2 -1,-2 0,-1 0,-1 0,-1 -1,0 -1,-1 -1,-1 -1,-1 -1,-1 -1,-2 -1,-1 -3,-3 -4,-5 0,-1 -1,-2 -1,-2 -1,-1 -1,-1 -1,-1 0,-1 -1,-1 -1,-2 0,0 0,0 0,0 0,0 0,0 0,0l0 0c-1,-1 -1,-1 -1,-2 0,0 -1,0 -1,-1 0,0 -1,-1 -1,-1 0,-1 0,-1 0,-1 -1,-1 -1,-2 -2,-3 -1,-1 -1,-1 -2,-2 0,-1 0,-2 -1,-2 0,0 0,-1 0,-1 -2,-3 -4,-6 -6,-9 0,-1 -1,-1 -1,-2 0,0 0,0 0,0 0,-1 0,-1 0,-1 0,0 0,0 0,0 -1,0 -1,-1 -1,-1 -1,-2 -2,-4 -3,-6 -1,-1 -1,-1 -2,-2 0,-1 -1,-2 -1,-2 0,0 0,-1 0,-1 -1,-2 -3,-4 -4,-6 0,0 0,0 0,0 0,0 0,-1 0,-1 -1,-2 -2,-4 -3,-6 -1,0 -1,-1 -1,-1 0,0 0,0 0,0 0,0 0,-1 0,-1 -1,0 -1,-1 -1,-1 0,0 0,-1 0,-1 0,0 -1,-1 -1,-1 0,0 0,-1 0,-1 0,0 0,0 0,0 0,0 -1,-1 -1,-1 0,-1 0,-1 -1,-2 0,0 0,0 0,-1 -1,-3 -2,-5 -3,-8 -1,-1 -2,-3 -2,-5 0,0 0,0 0,0 -1,0 -1,-1 -1,-1 0,-1 0,-1 0,-1 0,0 0,-1 0,-1l0 0c0,0 0,0 0,0 0,0 -1,-1 -1,-1 -1,-5 -3,-11 -5,-18 -1,-7 -3,-16 -2,-25 0,0 0,-1 0,-1 0,-1 0,-1 0,-2 0,-1 0,-2 0,-3 0,-1 0,-1 1,-2 0,0 0,-1 0,-1 0,-3 1,-7 2,-10 1,-1 1,-2 2,-4 0,0 0,0 0,-1 0,0 1,0 1,0 0,-1 0,-1 0,-1 0,0 0,0 0,0 0,-1 1,-1 1,-2 0,0 0,-1 1,-1 0,-1 0,-1 1,-2 0,-1 0,-1 1,-2 0,0 0,0 0,0 0,-1 1,-1 1,-2 0,0 1,-1 1,-1 0,0 0,0 0,-1 1,0 1,0 1,-1 0,0 1,-1 1,-1 1,-1 1,-1 1,-1 1,-1 1,-1 2,-2 0,0 0,0 0,0 0,0 0,-1 1,-1 0,0 1,-1 1,-1 0,-1 1,-1 1,-2 0,0 1,0 1,0 0,-1 1,-1 1,-1 0,0 0,0 0,-1 0,0 1,0 1,0 0,0 0,0 0,0 0,0 0,0 0,0 0,-1 0,-1 0,-1 1,0 1,0 1,0 1,-1 2,-2 3,-3 1,0 1,0 1,0 0,0 0,0 0,0 0,0 0,-1 0,-1 0,0 0,0 1,0 0,0 1,-1 1,-1 1,-1 2,-1 2,-2 2,-1 3,-2 5,-3 1,0 2,-1 3,-1 0,-1 0,-1 0,-1 1,0 2,-1 4,-2 0,0 1,0 1,-1 0,0 0,0 0,0 0,0 0,0 1,0 0,0 0,0 0,0 0,0 0,0 1,0 0,-1 0,-1 1,-1 0,0 0,0 0,0l0 0c0,0 1,-1 1,-1 0,0 1,0 1,0 1,-1 3,-1 4,-2 0,0 1,0 1,0 1,0 1,-1 1,-1 1,0 1,0 1,0 0,0 0,0 1,0 1,-1 2,-1 4,-2 1,0 2,0 2,-1 1,0 1,0 2,0 0,0 1,0 1,0 0,0 1,-1 1,-1 0,0 0,0 0,0 0,0 0,0 1,0 0,0 0,0 0,0 1,0 1,0 2,-1 0,0 1,0 2,0 0,0 1,0 1,-1 1,0 2,0 2,0 1,0 1,0 2,-1 0,0 0,0 0,0 1,0 1,0 1,0 2,0 4,-1 6,-1 1,-1 1,-1 2,-1 1,0 2,0 4,-1 0,0 0,0 -1,1 -1,2 -4,9 -6,21 0,5 -1,9 -1,15 0,22 5,53 26,96 7,16 17,33 30,52 2,3 4,6 6,8 69,101 165,186 291,129 0,-1 1,-1 2,-1 7,-4 14,-7 22,-12z"/>
   <path class="fil14" d="M517 546c-31,-28 -85,-55 -85,-55 0,0 -54,-21 -126,-26 -3,-27 -16,-55 -31,-77 -20,-31 -43,-54 -47,-57 0,-1 0,-1 0,-1l-10 -16 -7 -13c0,0 1,0 1,0 0,0 1,-1 1,-1 0,0 0,0 0,0 0,0 0,0 1,0 0,0 1,0 2,-1 0,0 1,0 2,0 0,0 1,0 1,-1 1,0 2,0 2,0 1,0 1,0 2,-1 0,0 0,0 0,0 1,0 1,0 1,0 2,0 4,-1 6,-1 1,-1 1,-1 2,-1 1,0 2,0 4,-1 0,0 0,0 0,0l0 0 12 2c0,0 54,11 68,16 15,5 73,65 89,80 16,15 78,54 80,56 0,0 2,5 5,12 9,27 27,85 27,86z"/>
   <path class="fil15" d="M643 425c-49,16 -80,45 -80,45l-48 -34 -52 50c-38,-22 -134,-38 -134,-38 -18,-100 -92,-153 -93,-154 40,-9 96,-17 153,-22l0 0c37,1 90,15 118,32 0,-1 35,-36 62,-44l0 0c28,-1 49,0 60,1 20,2 55,10 71,44 -48,45 -58,119 -57,120z"/>
   <path class="fil16" d="M569 260c-27,8 -62,43 -62,44 -28,-17 -81,-31 -118,-32 65,-7 132,-11 180,-12z"/>
   <polygon class="fil8" points="594,346 515,436 407,359 507,304 "/>
   <path class="fil17" d="M563 470l-46 76c0,0 -54,-59 -54,-60l52 -50 48 34z"/>
   <path class="fil18" d="M276 378c0,35 -28,64 -64,64 -35,0 -64,-29 -64,-64 0,-35 29,-64 64,-64 36,0 64,29 64,64z"/>
   <path class="fil1" d="M228 370c0,15 -12,27 -27,27 -15,0 -27,-12 -27,-27 0,-15 12,-27 27,-27 15,0 27,12 27,27z"/>
   <path class="fil19" d="M203 385l-154 126 -43 3 3 -11 179 -137c5,-4 13,-3 17,2 4,6 4,13 -2,17z"/>
   <polygon class="fil20" points="52,513 151,533 160,578 30,540 "/>
   <path class="fil1" d="M53 518c0,14 -12,26 -27,26 -14,0 -26,-12 -26,-26 0,-15 12,-27 26,-27 15,0 27,12 27,27z"/>
   <polygon class="fil21" points="163,599 129,503 267,568 267,599 "/>
   <path class="fil1" d="M287 584c0,11 -9,20 -19,20 -11,0 -20,-9 -20,-20 0,-10 9,-19 20,-19 10,0 19,9 19,19z"/>
   <path class="fil1" d="M307 652c-1,0 -21,-3 -33,-21 -8,-12 -10,-28 -6,-48 11,-50 62,-42 62,-42l-1 8 1 -4 -1 4c-2,0 -44,-6 -53,36 -4,17 -2,31 5,42 10,14 27,17 27,17l-1 8z"/>
   <polygon class="fil22" points="528,324 514,331 516,355 498,356 495,331 481,331 488,404 502,397 500,372 518,372 521,397 535,397 "/>
   <polygon class="fil23" points="429,126 419,172 405,173 403,164 413,121 "/>
   <polygon class="fil23" points="456,135 448,172 430,172 440,129 "/>
   <polygon class="fil23" points="553,128 543,169 526,170 533,135 "/>
  </g>
 </g>
</svg>
